<svg id="Ebene_1" data-name="Ebene 1" xmlns="http://www.w3.org/2000/svg" viewBox="0 0 733.74 551.58"><defs><style>.cls-1{fill:#7977e1;}.cls-2{fill:#ccc;stroke:#ccc;}.cls-10,.cls-2,.cls-7,.cls-8,.cls-9{stroke-miterlimit:10;}.cls-3{fill:#223666;}.cls-4,.cls-8{fill:#f9ab17;}.cls-5{fill:#fff;}.cls-6{fill:#f0de19;}.cls-7{fill:#fc3;stroke:#fc3;}.cls-8{stroke:#f9ab17;}.cls-9{fill:#fbcd74;stroke:#fbcd74;}.cls-10{fill:#151446;stroke:#151446;}</style></defs><g id="Absturz"><g id="Rauch"><circle class="cls-1" cx="423.8" cy="488.77" r="55.06"/><circle class="cls-1" cx="445.53" cy="430.82" r="36.95"/><circle class="cls-1" cx="410.76" cy="385.9" r="28.25"/><circle class="cls-1" cx="373.81" cy="350.4" r="42.02"/><circle class="cls-1" cx="226.03" cy="211.31" r="42.02"/><circle class="cls-1" cx="352.08" cy="295.35" r="55.06"/><circle class="cls-1" cx="288.33" cy="264.92" r="55.06"/><circle class="cls-1" cx="267.32" cy="197.55" r="47.09"/><circle class="cls-1" cx="144.16" cy="88.88" r="47.09"/><circle class="cls-1" cx="428.14" cy="277.24" r="78.96"/><circle class="cls-1" cx="78.96" cy="187.41" r="78.96"/><circle class="cls-1" cx="176.04" cy="159.88" r="78.96"/><ellipse class="cls-1" cx="355.7" cy="235.94" rx="25.36" ry="24.63"/><ellipse class="cls-1" cx="313.68" cy="241.74" rx="25.36" ry="24.63"/><ellipse class="cls-1" cx="322.38" cy="193.93" rx="25.36" ry="24.63"/><ellipse class="cls-1" cx="322.38" cy="218.56" rx="25.36" ry="24.63"/><circle class="cls-1" cx="636.06" cy="409.81" r="24.63"/><circle class="cls-1" cx="628.09" cy="355.48" r="38.4"/><circle class="cls-1" cx="599.84" cy="298.25" r="37.67"/><circle class="cls-1" cx="226.31" cy="69.46" r="37.67"/><circle class="cls-1" cx="520.87" cy="259.85" r="36.95"/><circle class="cls-1" cx="187.63" cy="113.51" r="29.7"/><circle class="cls-1" cx="254.28" cy="136.69" r="36.95"/><circle class="cls-1" cx="157.2" cy="235.22" r="36.95"/></g></g><path id="Rauch_Düse2" class="cls-2" d="M413.05,362.62c-3.5-8-.74-17.18,6.16-22.7a10.42,10.42,0,1,1,15.07-14.07A14,14,0,1,1,458.91,339a18.13,18.13,0,0,1,14.42,29.44,12.67,12.67,0,0,1,7,20.46l0,0,13.69,21.72-18.62-17.55,1.4-1.19a11.64,11.64,0,0,1-1.17.59,12.69,12.69,0,0,1-16-5.17,14,14,0,1,1-24.21-14.17C426.24,375.24,416.76,371,413.05,362.62Z" transform="translate(-62.16 -203.32)"/><path id="Rauch_Düse1" class="cls-2" d="M451.18,257.43c0-13.9,10-25.61,23.63-29.25a16.66,16.66,0,1,1,31.12-10.86,22.44,22.44,0,1,1,27.55,35.15,29,29,0,0,1,2.12,52.36,20.25,20.25,0,0,1-2.88,34.46l.08,0,6,40.59L522.9,342.19l2.83-.84a20.79,20.79,0,0,1-2.1.11,20.28,20.28,0,0,1-20.13-17.89,22.45,22.45,0,1,1-26.3-36.34C462.35,284.39,451.18,272.13,451.18,257.43Z" transform="translate(-62.16 -203.32)"/><g id="Rocket"><path id="path24" class="cls-3" d="M485.24,561.18l-21.75,8.51a30.6,30.6,0,0,1-39.64-17.34L397,483.75a4.28,4.28,0,0,1,7.23-4.34l22.54,26.35a31.17,31.17,0,0,0,35,8.77l14.9-5.83,8.53,52.48" transform="translate(-62.16 -203.32)"/><path id="path26" class="cls-3" d="M653.87,495.17l21.75-8.51A30.59,30.59,0,0,0,693,447l-28.57-78.6a4.27,4.27,0,0,0-8.25,1.73l3.05,44.65A31.17,31.17,0,0,1,639.41,445l-14.9,5.83,29.36,44.32" transform="translate(-62.16 -203.32)"/><path id="path30" class="cls-3" d="M652.25,732.45a244.18,244.18,0,0,1,37.46-11.36c47.78-138.22-60.35-280.28-60.35-280.28L464.85,505.2S482,684,612,752.61a239.71,239.71,0,0,1,40.26-20.16" transform="translate(-62.16 -203.32)"/><path id="path32" class="cls-4" d="M618.51,648.22c28.38-11.11,56.79-16.84,82.88-17.68-6.4-103.47-72-189.73-72-189.73L464.85,505.2s10.48,109.15,77,189.62c20.3-18.46,46.4-34.78,76.61-46.6" transform="translate(-62.16 -203.32)"/><path id="path34" class="cls-3" d="M600.59,452.07,589.3,441.89l-95,37.18-.67,14.87,107-41.87" transform="translate(-62.16 -203.32)"/><path id="path36" class="cls-4" d="M569.53,439.07l-63.34,24.79,3.58,9.15,63.34-24.79Z" transform="translate(-62.16 -203.32)"/><path id="path38" class="cls-4" d="M474,431a54,54,0,0,0,69.28,28.88c27.2-10.64,39.19-50.89,29.56-78.23L474,431" transform="translate(-62.16 -203.32)"/><path id="path40" class="cls-5" d="M536.82,593.72a54.29,54.29,0,1,1,70.34,30.77,54.29,54.29,0,0,1-70.34-30.77" transform="translate(-62.16 -203.32)"/><path id="path42" class="cls-6" d="M569.56,532.91a44.73,44.73,0,1,1-24.81,54.59A44.73,44.73,0,0,1,569.56,532.91Zm41.18,100.74a64.12,64.12,0,1,0-83.08-36.34,64.13,64.13,0,0,0,83.08,36.34" transform="translate(-62.16 -203.32)"/></g><g id="Feuer"><path class="cls-7" d="M559.68,714.59s3.87-30.55-19.24-28.23c0,0,6.17,9.91-1.07,10.19-2.89.11-3.11-5.69-4.67-8.53s-4.61-7.07-10.35-5.41c0,0,4.51,4.18,4.89,14.32s5.36,22.19,14,24.12S559.68,714.59,559.68,714.59Z" transform="translate(-62.16 -203.32)"/><path class="cls-7" d="M701.33,682.21s-8.3-29.65,14.9-30.74c0,0-4.65,10.71,2.55,9.92,2.88-.31,2.25-6.08,3.37-9.11s3.53-7.68,9.45-6.87c0,0-3.85,4.79-2.74,14.88s-2.05,22.73-10.28,25.9S701.33,682.21,701.33,682.21Z" transform="translate(-62.16 -203.32)"/><path class="cls-8" d="M507,716.81s15.87-56.33-30.29-58.35c0,0,9.49,20.34-4.85,18.85-5.74-.59-4.6-11.53-6.9-17.3s-7.19-14.56-18.94-13c0,0,7.75,9.1,5.77,28.24s4.56,43.17,21,49.16S507,716.81,507,716.81Z" transform="translate(-62.16 -203.32)"/><path class="cls-9" d="M439.59,624s1.45,13,13,14.49a11.09,11.09,0,0,1,7.25,2.9s0-10.14-2.9-11.59S448.29,629.79,439.59,624Z" transform="translate(-62.16 -203.32)"/><path class="cls-9" d="M518.56,669.74s.77,7,7,7.76a5.93,5.93,0,0,1,3.88,1.55s0-5.43-1.55-6.21S523.21,672.84,518.56,669.74Z" transform="translate(-62.16 -203.32)"/><path class="cls-9" d="M732.7,626.69s.7,7-5.21,9a5.89,5.89,0,0,0-3.47,2.33s-1.13-5.32.22-6.4S728.8,630.7,732.7,626.69Z" transform="translate(-62.16 -203.32)"/></g><path class="cls-10" d="M216.46,720.34s5.8-5.79,11.6,0c0,0,26.08-23.18,44.91,7.25,0,0,20.29-30.43,46.37-8.69.72-7.21,40.56-40.57,73.89,1.44,0,0,27.53-5.79,39.12,7.25,0,0,24.63-14.49,40.57-8.69-2.9-8.7,34.77-40.57,59.4-4.35,0,0,39.12-7.25,51.44,16.66,0,0,12.31-52.88,74.61-29.7-1.45-23.18,58-43.47,73.17-2.17,0,0,31.88-31.88,52.16,20.28,0,0,18.84,15.94,8.7,34.77H172.27s-9-19.73,8-31.87C200.53,708,216.46,720.34,216.46,720.34Z" transform="translate(-62.16 -203.32)"/></svg>