<svg id="Ebene_1" data-name="Ebene 1" xmlns="http://www.w3.org/2000/svg" viewBox="0 0 277.8 82.07"><defs><style>.cls-1{fill:#1d1d1b;}.cls-2{fill:#5dc6f2;}.cls-3{fill:#b2b2b2;}.cls-4{fill:none;stroke:#b2b2b2;stroke-miterlimit:22.23;stroke-width:0.38px;}</style></defs><path class="cls-1" d="M297.92,418.41q5.37-5.3,5.38-13.9,0-7.27-2.87-11.53a18.42,18.42,0,0,0-7.44-6.45,32.07,32.07,0,0,0-10.35-2.87A102.47,102.47,0,0,0,271,383H250.3v78.1h9.61V426h0v-8.6h0V391.61h13.51a55.1,55.1,0,0,1,7,.44,19.68,19.68,0,0,1,6.3,1.82,11.5,11.5,0,0,1,4.52,3.91,11.88,11.88,0,0,1,1.71,6.73q0,4.86-2.34,7.45a13.7,13.7,0,0,1-6,3.8,29.41,29.41,0,0,1-7.89,1.44c-1.53.08-3,.13-4.5.17v8.7l21.95,35h11.8l-23-36q9.51-1.42,14.89-6.73Z" transform="translate(-157.83 -381.02)"/><path class="cls-1" d="M381.6,422.05a41.84,41.84,0,0,0-1.83-12.85,37,37,0,0,0-4.93-10,34,34,0,0,0-7.15-7.44,41.13,41.13,0,0,0-8.47-5,42.82,42.82,0,0,0-8.87-2.82,44.42,44.42,0,0,0-8.47-.88H310.74v78.1h9.63l0-69.49h18.32a45.52,45.52,0,0,1,12.93,1.76,28.09,28.09,0,0,1,10.31,5.46,25.8,25.8,0,0,1,6.87,9.43,39,39,0,0,1,0,27.58,25.71,25.71,0,0,1-6.87,9.43,27.8,27.8,0,0,1-10.31,5.46,45.16,45.16,0,0,1-12.93,1.77h-2.56v8.6h5.77a43.91,43.91,0,0,0,17.34-3.69,41.58,41.58,0,0,0,8.47-5,33.8,33.8,0,0,0,7.15-7.45,36.85,36.85,0,0,0,4.93-10,41.8,41.8,0,0,0,1.83-12.85Z" transform="translate(-157.83 -381.02)"/><path class="cls-1" d="M434.26,390.17a24.6,24.6,0,0,0-10.13-7.11,38.76,38.76,0,0,0-22.84-.61,28.52,28.52,0,0,0-8.82,4.25,21,21,0,0,0-6.18,7,20.15,20.15,0,0,0-2.29,9.82,20.41,20.41,0,0,0,1.55,8.33,17.92,17.92,0,0,0,4.23,5.95,24.58,24.58,0,0,0,6.36,4.2,60.25,60.25,0,0,0,8,3l9.39,3.09a30.25,30.25,0,0,1,6.64,3,11.08,11.08,0,0,1,3.89,3.91,12.09,12.09,0,0,1,1.26,5.9,10.7,10.7,0,0,1-1.61,5.85A14.26,14.26,0,0,1,419.6,451a19.37,19.37,0,0,1-5.66,2.59,23.22,23.22,0,0,1-16.2-1.32,16.74,16.74,0,0,1-7.33-6.51l-8.24,6.51a20.25,20.25,0,0,0,4.92,5,27.69,27.69,0,0,0,6.13,3.3,34.94,34.94,0,0,0,6.81,1.88,42.46,42.46,0,0,0,7.1.61,40.91,40.91,0,0,0,10.64-1.38,28,28,0,0,0,9.1-4.19,21.66,21.66,0,0,0,6.36-7.12,23.18,23.18,0,0,0,.4-19.69,18.76,18.76,0,0,0-5.38-6.34,31.12,31.12,0,0,0-7.79-4.19q-4.41-1.67-9.1-3.09a75.53,75.53,0,0,1-8.13-2.87,21.09,21.09,0,0,1-5.26-3.09,9.94,9.94,0,0,1-2.81-3.69,12.07,12.07,0,0,1-.86-4.69,11.59,11.59,0,0,1,1.49-6,11.78,11.78,0,0,1,3.95-4.08,19.18,19.18,0,0,1,5.55-2.32,26.12,26.12,0,0,1,6.3-.77,21.12,21.12,0,0,1,8.36,1.71,14,14,0,0,1,6.41,5.46l7.9-6.62Z" transform="translate(-157.83 -381.02)"/><path class="cls-1" d="M239.06,408H220.23V461.1h18.83V408Zm-9.34-9.45" transform="translate(-157.83 -381.02)"/><path class="cls-1" d="M209.06,408H190.23V461.1h18.83V408Zm-9.34-9.45" transform="translate(-157.83 -381.02)"/><path class="cls-2" d="M229.65,382.49c-8.27,0-11,3-11,11.12,0,8,2.71,10.82,11,10.82,8.12,0,11-2.85,11-10.82,0-8.12-2.85-11.12-11-11.12Z" transform="translate(-157.83 -381.02)"/><path class="cls-2" d="M199.65,382.49c-8.27,0-11,3-11,11.12,0,8,2.7,10.82,11,10.82,8.12,0,11-2.85,11-10.82,0-8.12-2.85-11.12-11-11.12Z" transform="translate(-157.83 -381.02)"/><polygon class="cls-1" points="21.64 41.5 12.44 46.62 5.71 42.15 5.71 47.32 12.62 51.12 21.94 46.55 21.64 41.5 21.64 41.5"/><polygon class="cls-1" points="21.64 50.85 0 50.85 0 55.35 21.64 55.35 21.64 50.85 21.64 50.85"/><path class="cls-1" d="M171.2,408q-4.26,0-6.45,1.65c-1.46,1.1-2.2,3-2.2,5.59s.74,4.5,2.21,5.61,3.62,1.68,6.44,1.68,5-.56,6.43-1.68,2.21-3,2.21-5.61-.73-4.49-2.2-5.59S174,408,171.2,408Zm0,4.45a10.12,10.12,0,0,1,4.26.58,2.28,2.28,0,0,1,1.06,2.22,2.33,2.33,0,0,1-1.07,2.24,15.6,15.6,0,0,1-8.5,0,2.88,2.88,0,0,1,0-4.46,10.21,10.21,0,0,1,4.27-.58Z" transform="translate(-157.83 -381.02)"/><path class="cls-1" d="M167.48,401.47a7.09,7.09,0,0,1-.83-1.63,5.16,5.16,0,0,1-.35-1.72,1.38,1.38,0,0,1,.45-1.13,5.52,5.52,0,0,1,2.65-.36h10.07v-4.37H168.92q-.51,0-1.41.06A6,6,0,0,1,166.3,389a1.46,1.46,0,0,1,.46-1.2,5.33,5.33,0,0,1,2.64-.38h10.07V383H168.64a8.56,8.56,0,0,0-4.52,1,3.7,3.7,0,0,0-1.62,3.42,6.58,6.58,0,0,0,.38,2.17,10.62,10.62,0,0,0,.74,1.77c.25.44.59,1,1,1.66a3.75,3.75,0,0,0-2.14,3.64,7,7,0,0,0,.41,2.28,11.84,11.84,0,0,0,.73,1.8c.21.39.53.94.94,1.63v.17l-1.66.51v2.78h16.55v-4.36Z" transform="translate(-157.83 -381.02)"/><path class="cls-3" d="M178.62,460a4.19,4.19,0,0,0,1.16-3.28,9.81,9.81,0,0,0-.22-2.22h-2.62l.09,1.8c0,.68-.15,1.1-.44,1.26a6.8,6.8,0,0,1-2.32.23h-7.83v-3.32h-2.53v3.3h-3.83v2.5l3.88.65.4,2h2V461h7.75c2.21,0,3.71-.35,4.49-1.06Zm-.13-20.28-2.48.79.31.87a15.37,15.37,0,0,1,.85,4.82,2.77,2.77,0,0,1-.62,1.88c-.66.72-2,1.07-4.11,1.07v-9.82h-2q-4.17,0-6,1.56a5.87,5.87,0,0,0-1.8,4.69q0,7,8.6,7t8.6-7a13,13,0,0,0-1.35-5.8Zm-8.64,2.93.14,6.47a16.94,16.94,0,0,1-2.11-.14,3.82,3.82,0,0,1-1.41-.49,2,2,0,0,1-.9-1.1,5.55,5.55,0,0,1-.26-1.83,3.8,3.8,0,0,1,.2-1.5,2.88,2.88,0,0,0,.21-.45.75.75,0,0,1,.35-.36,1.43,1.43,0,0,0,.38-.25,1.18,1.18,0,0,1,.54-.17l.56-.1c.09,0,.32,0,.71-.05l.74,0Z" transform="translate(-157.83 -381.02)"/><path class="cls-4" d="M178.62,460a4.19,4.19,0,0,0,1.16-3.28,9.81,9.81,0,0,0-.22-2.22h-2.62l.09,1.8c0,.68-.15,1.1-.44,1.26a6.8,6.8,0,0,1-2.32.23h-7.83v-3.32h-2.53v3.3h-3.83v2.5l3.88.65.4,2h2V461h7.75c2.21,0,3.71-.35,4.49-1.06Zm-.13-20.28-2.48.79.31.87a15.37,15.37,0,0,1,.85,4.82,2.77,2.77,0,0,1-.62,1.88c-.66.72-2,1.07-4.11,1.07v-9.82h-2q-4.17,0-6,1.56a5.87,5.87,0,0,0-1.8,4.69q0,7,8.6,7t8.6-7a13,13,0,0,0-1.35-5.8Zm-8.64,2.93.14,6.47a16.94,16.94,0,0,1-2.11-.14,3.82,3.82,0,0,1-1.41-.49,2,2,0,0,1-.9-1.1,5.55,5.55,0,0,1-.26-1.83,3.8,3.8,0,0,1,.2-1.5,2.88,2.88,0,0,0,.21-.45.75.75,0,0,1,.35-.36,1.43,1.43,0,0,0,.38-.25,1.18,1.18,0,0,1,.54-.17l.56-.1c.09,0,.32,0,.71-.05l.74,0Z" transform="translate(-157.83 -381.02)"/></svg>