<svg id="Ebene_1" data-name="Ebene 1" xmlns="http://www.w3.org/2000/svg" viewBox="0 0 246.95 82.07"><defs><style>.cls-1{fill:#303030;}.cls-2{fill:#5dc6f2;}</style></defs><path class="cls-1" d="M985.76,496.13q5.38-5.29,5.38-13.9,0-7.28-2.86-11.53a18.55,18.55,0,0,0-7.44-6.45,32.13,32.13,0,0,0-10.36-2.87,102.34,102.34,0,0,0-11.62-.66H938.14v78.1h9.62V503.74h0v-8.6h0V469.32h13.51a57,57,0,0,1,7,.44,20.22,20.22,0,0,1,6.29,1.82,11.53,11.53,0,0,1,4.52,3.92,11.78,11.78,0,0,1,1.72,6.73q0,4.86-2.34,7.45a13.88,13.88,0,0,1-6,3.8,29.41,29.41,0,0,1-7.9,1.44c-1.52.07-3,.13-4.49.17v8.7l22,35h11.79l-23-36q9.51-1.44,14.88-6.73Z" transform="translate(-876.52 -458.73)"/><path class="cls-1" d="M1069.45,499.77a41.83,41.83,0,0,0-1.84-12.85,36.69,36.69,0,0,0-4.92-10,34.25,34.25,0,0,0-7.15-7.45,42.32,42.32,0,0,0-8.47-5,44,44,0,0,0-17.35-3.69H998.58v78.1h9.64l0-69.5h18.32a45.21,45.21,0,0,1,12.93,1.77,28.17,28.17,0,0,1,10.31,5.46,25.8,25.8,0,0,1,6.86,9.43,39,39,0,0,1,0,27.58,25.8,25.8,0,0,1-6.86,9.43,28.17,28.17,0,0,1-10.31,5.46,45.21,45.21,0,0,1-12.93,1.76H1024v8.61h5.76a43.55,43.55,0,0,0,8.47-.88,42.72,42.72,0,0,0,8.88-2.82,41.4,41.4,0,0,0,8.47-5,34,34,0,0,0,7.15-7.44,36.69,36.69,0,0,0,4.92-10,41.83,41.83,0,0,0,1.84-12.85Z" transform="translate(-876.52 -458.73)"/><path class="cls-1" d="M1122.1,467.89a24.59,24.59,0,0,0-10.13-7.12,38.64,38.64,0,0,0-22.84-.6,28.45,28.45,0,0,0-8.81,4.24,20.88,20.88,0,0,0-6.18,7,20.15,20.15,0,0,0-2.29,9.82,20.44,20.44,0,0,0,1.54,8.33,17.94,17.94,0,0,0,4.24,5.95,24.49,24.49,0,0,0,6.35,4.19,59,59,0,0,0,8,3q5.37,1.75,9.38,3.09a30.52,30.52,0,0,1,6.64,3,11.14,11.14,0,0,1,3.9,3.92,12.21,12.21,0,0,1,1.25,5.9,10.7,10.7,0,0,1-1.6,5.85,14.38,14.38,0,0,1-4.12,4.25,19.31,19.31,0,0,1-5.67,2.59,23.14,23.14,0,0,1-16.19-1.33,16.73,16.73,0,0,1-7.33-6.5L1070,530a20.08,20.08,0,0,0,4.92,5,27.47,27.47,0,0,0,6.12,3.31,35.23,35.23,0,0,0,6.82,1.88,42.42,42.42,0,0,0,7.09.6,41.41,41.41,0,0,0,10.65-1.37,28,28,0,0,0,9.1-4.2,21.39,21.39,0,0,0,6.35-7.11,23.08,23.08,0,0,0,.4-19.69,18.65,18.65,0,0,0-5.38-6.34,30.9,30.9,0,0,0-7.78-4.2q-4.41-1.65-9.1-3.08a76.15,76.15,0,0,1-8.13-2.87,21.36,21.36,0,0,1-5.27-3.09,9.94,9.94,0,0,1-2.8-3.7,12,12,0,0,1-.86-4.69,11.58,11.58,0,0,1,1.49-5.95,11.78,11.78,0,0,1,3.95-4.08,19.18,19.18,0,0,1,5.55-2.32,26.12,26.12,0,0,1,6.3-.77,21,21,0,0,1,8.35,1.71,14,14,0,0,1,6.41,5.46l7.9-6.62Z" transform="translate(-876.52 -458.73)"/><path class="cls-1" d="M926.91,485.75H908.08v53.07h18.83V485.75Zm-9.34-9.45" transform="translate(-876.52 -458.73)"/><path class="cls-1" d="M896.91,485.75H878.08v53.07h18.83V485.75Zm-9.34-9.45" transform="translate(-876.52 -458.73)"/><path class="cls-2" d="M917.5,460.2c-8.27,0-11,3-11,11.13s2.71,10.82,11,10.82c8.11,0,11-2.85,11-10.82s-2.86-11.13-11-11.13Z" transform="translate(-876.52 -458.73)"/><path class="cls-2" d="M887.5,460.2c-8.27,0-11,3-11,11.13s2.71,10.82,11,10.82c8.11,0,11-2.85,11-10.82s-2.86-11.13-11-11.13Z" transform="translate(-876.52 -458.73)"/></svg>