<svg id="Ebene_1" data-name="Ebene 1" xmlns="http://www.w3.org/2000/svg" viewBox="0 0 1121 1067" preserveAspectRatio="xMinYMid"><defs><style>.cls-1{fill:#5cc5f2;opacity:0.9;}.cls-1,.cls-2{fill-rule:evenodd;}.cls-2,.cls-3{fill:none;stroke:#fff;stroke-linecap:round;stroke-linejoin:round;stroke-width:5px;}.cls-4{font-size:36px;fill:#fff;font-family:Calibri;}</style></defs><polygon class="cls-1" points="0 0 1121 1067 0 1067 0 0 0 0"/><polygon class="cls-2" points="427.65 711.5 427.65 768.06 427.65 783.14 442.75 768.06 442.75 711.5 499.39 654.94 371 654.94 427.65 711.5"/><polygon class="cls-2" points="614.66 871.53 583.62 890.36 651.91 931.76 682.96 912.92 614.66 871.53"/><polygon class="cls-2" points="622.52 866.77 690.82 908.16 720.21 890.36 651.91 848.97 622.52 866.77"/><polygon class="cls-2" points="583.62 906.92 583.62 973.15 647.77 1012.06 647.77 939 583.62 900.09 583.62 906.92"/><path class="cls-2" d="M1095.78,978.1l64.16-38.91V866.13L1095.78,905Zm8.28-67.89,14.49-8.28v14.49l-14.49,8.28Z" transform="translate(-439.73 33.96)"/><path class="cls-3" d="M589.39,400.6H730.11v80.64c-70.36,0-70.36,31-140.72,15.51Zm11.59,0V390.14H740.74v81.15c-5.31,0-10.63.56-10.63.56M611.88,390.14v-10.2h141v80.9c-6.06,0-12.11.42-12.11.42" transform="translate(-439.73 33.96)"/><circle class="cls-3" cx="88.39" cy="465.06" r="22.5"/><text class="cls-4" transform="translate(79.06 474.8)">1</text><circle class="cls-3" cx="319.39" cy="678.89" r="22.5"/><text class="cls-4" transform="translate(310.06 688.63)">2</text><circle class="cls-3" cx="525.39" cy="908.06" r="22.5"/><text class="cls-4" transform="translate(516.06 917.8)">3</text><line class="cls-3" x1="285.89" y1="547.56" x2="359.89" y2="621.56"/><line class="cls-3" x1="501.89" y1="759.56" x2="580.89" y2="838.56"/></svg>
