<svg id="Ebene_1" data-name="Ebene 1" xmlns="http://www.w3.org/2000/svg" viewBox="0 0 659.32 603.15"><defs><style>.cls-1,.cls-2{fill:none;stroke:#fff;stroke-linecap:round;stroke-linejoin:round;stroke-width:5px;}.cls-1{fill-rule:evenodd;}.cls-3{font-size:36px;fill:#fff;font-family:Calibri;}</style></defs><polygon class="cls-1" points="364.25 300.1 364.25 356.66 364.25 371.74 379.36 356.66 379.36 300.1 436 243.53 307.61 243.53 364.25 300.1"/><polygon class="cls-1" points="551.27 460.13 520.23 478.96 588.52 520.35 619.56 501.52 551.27 460.13"/><polygon class="cls-1" points="559.13 455.37 627.43 496.76 656.82 478.96 588.52 437.57 559.13 455.37"/><polygon class="cls-1" points="520.23 495.52 520.23 561.75 584.38 600.65 584.38 527.6 520.23 488.69 520.23 495.52"/><path class="cls-1" d="M1095.78,978.1l64.16-38.91V866.13L1095.78,905Zm8.28-67.89,14.49-8.28v14.49l-14.49,8.28Z" transform="translate(-503.12 -377.44)"/><path class="cls-2" d="M589.39,400.6H730.11v80.64c-70.36,0-70.36,31-140.72,15.51Zm11.59,0V390.14H740.74v81.15c-5.31,0-10.63.56-10.63.56M611.88,390.14v-10.2h141v80.9c-6.06,0-12.11.42-12.11.42" transform="translate(-503.12 -377.44)"/><circle class="cls-2" cx="25" cy="53.65" r="22.5"/><text class="cls-3" transform="translate(15.67 63.4)">1</text><circle class="cls-2" cx="256" cy="267.49" r="22.5"/><text class="cls-3" transform="translate(246.67 277.23)">2</text><circle class="cls-2" cx="462" cy="496.65" r="22.5"/><text class="cls-3" transform="translate(452.67 506.39)">3</text><line class="cls-2" x1="222.5" y1="136.15" x2="296.5" y2="210.15"/><line class="cls-2" x1="438.5" y1="348.15" x2="517.5" y2="427.15"/></svg>