<?xml version="1.0" encoding="UTF-8" standalone="no"?>
<svg
   xmlns:dc="http://purl.org/dc/elements/1.1/"
   xmlns:cc="http://creativecommons.org/ns#"
   xmlns:rdf="http://www.w3.org/1999/02/22-rdf-syntax-ns#"
   xmlns:svg="http://www.w3.org/2000/svg"
   xmlns="http://www.w3.org/2000/svg"
   xmlns:sodipodi="http://sodipodi.sourceforge.net/DTD/sodipodi-0.dtd"
   xmlns:inkscape="http://www.inkscape.org/namespaces/inkscape"
   id="SvgjsSvg13861"
   width="1000"
   height="1000"
   version="1.1"
   sodipodi:docname="icon_white.svg"
   inkscape:version="0.92.0 r15299">
  <metadata
     id="metadata18">
    <rdf:RDF>
      <cc:Work
         rdf:about="">
        <dc:format>image/svg+xml</dc:format>
        <dc:type
           rdf:resource="http://purl.org/dc/dcmitype/StillImage" />
        <dc:title></dc:title>
      </cc:Work>
    </rdf:RDF>
  </metadata>
  <sodipodi:namedview
     pagecolor="#ffffff"
     bordercolor="#666666"
     borderopacity="1"
     objecttolerance="10"
     gridtolerance="10"
     guidetolerance="10"
     inkscape:pageopacity="0"
     inkscape:pageshadow="2"
     inkscape:window-width="1920"
     inkscape:window-height="1017"
     id="namedview16"
     showgrid="false"
     inkscape:pagecheckerboard="true"
     fit-margin-top="0"
     fit-margin-left="0"
     fit-margin-right="0"
     fit-margin-bottom="0"
     inkscape:zoom="0.50547086"
     inkscape:cx="419.78516"
     inkscape:cy="599.80876"
     inkscape:window-x="-8"
     inkscape:window-y="-8"
     inkscape:window-maximized="1"
     inkscape:current-layer="SvgjsG6639" />
  <defs
     id="SvgjsDefs13862" />
  <g
     id="SvgjsG13863"
     transform="matrix(34.4,0,0,34.4,0,283.8136)"
     style="opacity:1">
    <defs
       id="SvgjsDefs6638" />
    <g
       id="SvgjsG6639"
       transform="scale(0.21645022)"
       style="opacity:1">
      <g
         id="SvgjsG6640"
         class="oASvwGlM_"
         transform="matrix(1.4169514,0,0,1.4169514,-4.0787336,-37.25142)"
         light-content="false"
         style="fill:#ffffff">
        <path
           d="M 64.398,62.04 H 55 V 52.636 H 45 v 9.404 h -9.398 v 10 H 45 v 9.403 H 55 V 72.04 h 9.398 z"
           id="path4"
           inkscape:connector-curvature="0" />
        <path
           d="m 71.421,72.04 v -10 C 78.909,62.04 85,55.942 85,48.447 c 0,-7.483 -6.091,-13.57 -13.579,-13.57 -1.018,0 -2.065,0.128 -3.11,0.381 l -3.578,0.867 -1.89,-3.159 c -3.522,-5.889 -9.688,-9.405 -16.491,-9.405 -10.605,0 -19.234,8.63 -19.234,19.238 v 5 h -5 c -3.925,0 -7.118,3.194 -7.118,7.12 0,3.927 3.193,7.121 7.118,7.121 h 6.46 v 10 h -6.46 C 12.679,72.04 5,64.359 5,54.919 5,47.101 10.269,40.489 17.441,38.449 19.548,24.383 31.71,13.561 46.352,13.561 c 9.04,0 17.616,4.296 23.115,11.401 a 22.494,22.494 0 0 1 1.955,-0.085 C 84.423,24.877 95,35.451 95,48.447 95,61.456 84.423,72.04 71.421,72.04 Z"
           id="path6"
           inkscape:connector-curvature="0" />
      </g>
    </g>
  </g>
</svg>
