<svg xmlns="http://www.w3.org/2000/svg" width="3460" height="736" version="1"><g class="oASvwGlM_" fill="#5755d9"><path d="M637 521h-99v-99H432v99h-99v106h99v99h106v-99h99z"/><path d="M711 627V521a143 143 0 1 0-33-282l-38 9-20-33a203 203 0 0 0-377 104v52h-52a75 75 0 0 0 0 150h68v106h-68a181 181 0 0 1-50-354 309 309 0 0 1 549-143 237 237 0 0 1 21-1 249 249 0 0 1 0 498z"/></g><path d="M1234 379c0 54-20 80-60 80a99 99 0 0 1-46-12V296a169 169 0 0 1 37-2c23 0 40 7 52 23 11 15 17 36 17 62zm85-2c0-24-3-45-10-64s-17-36-30-49-29-23-48-31c-20-7-41-11-66-11a364 364 0 0 0-64 5 434 434 0 0 0-56 12v389h83V517a158 158 0 0 0 62 13c21 0 40-4 56-11 16-8 29-18 40-32 11-13 19-29 25-48s8-39 8-62zm183 153l12-69c-10-1-18-2-24-5s-11-6-14-10-6-9-7-15l-1-21V89l-84 13v325c0 16 1 30 5 43 3 12 9 23 18 32s20 15 36 20c15 5 35 8 59 8zm312-16V229h-84v228a278 278 0 0 1-37 3c-20 0-33-6-40-18s-11-32-11-59V229h-83v165c0 20 2 38 6 55s11 32 21 44c9 12 23 21 39 28 17 7 38 10 63 10a450 450 0 0 0 126-17zm163-50a217 217 0 0 1-88-18l-14 68a262 262 0 0 0 102 18c40 0 71-7 93-22 21-15 32-37 32-66 0-13-1-24-4-33s-7-18-14-26c-7-7-17-14-29-21l-45-20a280 280 0 0 1-36-17c-4-2-6-5-7-8l-2-9c0-14 13-21 40-21 14 0 27 1 38 3l32 9 15-65c-10-3-23-7-40-10-16-3-34-5-51-5-36 0-65 8-85 24a79 79 0 0 0-31 66c0 14 2 26 6 37 4 10 10 18 17 26 8 7 17 13 28 18 10 6 22 11 35 16 17 6 30 12 38 17s12 11 12 18c0 8-3 14-9 17-7 3-18 4-33 4zm350-96v156h84V363l-1-30-5-28c5-3 12-6 20-8l18-3c17 0 29 5 36 16 7 12 10 31 10 58v156h84V358c0-21-2-39-5-55-3-17-9-31-18-43s-21-21-37-28a148 148 0 0 0-101-2c-15 4-29 11-41 20-9-8-20-14-33-20-13-5-31-8-52-8a387 387 0 0 0-96 11l-25 6v285h83V296a327 327 0 0 1 33-2c17 0 29 5 36 16 7 12 10 31 10 58zm308 11c0 22 3 42 9 61a128 128 0 0 0 78 81c19 7 43 11 69 11a295 295 0 0 0 104-18l-11-68a240 240 0 0 1-81 15c-25-1-44-6-58-16a56 56 0 0 1-24-41h190a818 818 0 0 0 1-31c0-50-12-88-36-113-24-26-58-39-99-39a141 141 0 0 0-98 40c-13 13-24 30-32 49-8 20-12 43-12 69zm197-32h-111l5-21c3-7 6-13 11-18 4-6 10-10 16-13 7-3 15-5 25-5 9 0 18 2 24 5a51 51 0 0 1 26 31l4 21zm142-192v249c0 19 2 36 6 52 3 16 9 29 18 40s21 20 36 26 34 9 57 9a197 197 0 0 0 79-15l-11-65a148 148 0 0 1-54 9c-19 0-32-5-38-15-6-11-9-25-9-42V299h101v-70h-101v-87zm354 311c-15 0-27-2-36-7-9-6-13-15-13-28 0-7 1-12 4-17 3-4 7-8 13-10 5-3 11-5 18-6a173 173 0 0 1 56 2v64l-18 2h-24zm-7-245a287 287 0 0 0-56 5 325 325 0 0 0-42 9l11 68a282 282 0 0 1 78-12c21 0 36 4 45 13 8 8 13 20 13 34v8l-21-4a256 256 0 0 0-75 4c-15 3-29 8-40 15a79 79 0 0 0-38 72c0 18 3 34 9 46s14 22 25 30c12 8 25 13 41 17a479 479 0 0 0 179-10V342c0-18-2-35-6-50a88 88 0 0 0-61-62c-16-6-37-9-62-9z" fill="#4a4a4a"/><path fill="#5755d9" d="M1219 591h2234v38H1219z"/></svg>