<?xml version="1.0" encoding="utf-8"?>
<!-- Generator: Adobe Illustrator 24.1.1, SVG Export Plug-In . SVG Version: 6.00 Build 0)  -->
<svg version="1.1"
	 id="SvgjsSvg13861" inkscape:version="0.92.0 r15299" sodipodi:docname="icon_white.svg" xmlns:cc="http://creativecommons.org/ns#" xmlns:dc="http://purl.org/dc/elements/1.1/" xmlns:inkscape="http://www.inkscape.org/namespaces/inkscape" xmlns:rdf="http://www.w3.org/1999/02/22-rdf-syntax-ns#" xmlns:sodipodi="http://sodipodi.sourceforge.net/DTD/sodipodi-0.dtd" xmlns:svg="http://www.w3.org/2000/svg"
	 xmlns="http://www.w3.org/2000/svg" xmlns:xlink="http://www.w3.org/1999/xlink" x="0px" y="0px" viewBox="0 0 1000 1000"
	 style="enable-background:new 0 0 1000 1000;" xml:space="preserve">
<style type="text/css">
	.st0{fill:#424242;}
</style>
<sodipodi:namedview  bordercolor="#666666" borderopacity="1" fit-margin-bottom="0" fit-margin-left="0" fit-margin-right="0" fit-margin-top="0" gridtolerance="10" guidetolerance="10" id="namedview16" inkscape:current-layer="SvgjsG6639" inkscape:cx="419.78516" inkscape:cy="599.80876" inkscape:pagecheckerboard="true" inkscape:pageopacity="0" inkscape:pageshadow="2" inkscape:window-height="1017" inkscape:window-maximized="1" inkscape:window-width="1920" inkscape:window-x="-8" inkscape:window-y="-8" inkscape:zoom="0.50547086" objecttolerance="10" pagecolor="#ffffff" showgrid="false">
	</sodipodi:namedview>
<g id="SvgjsG13863" transform="matrix(34.4,0,0,34.4,0,283.8136)">
	<g id="SvgjsG6639" transform="scale(0.21645022)">
		<g id="SvgjsG6640" transform="matrix(1.4169514,0,0,1.4169514,-4.0787336,-37.25142)">
			<path id="path4" inkscape:connector-curvature="0" class="st0" d="M64.4,62H55v-9.4H45V62h-9.4v10H45v9.4h10V72h9.4V62z"/>
			<path id="path6" inkscape:connector-curvature="0" class="st0" d="M71.4,72V62C78.9,62,85,55.9,85,48.4c0-7.5-6.1-13.6-13.6-13.6
				c-1,0-2.1,0.1-3.1,0.4l-3.6,0.9L62.8,33c-3.5-5.9-9.7-9.4-16.5-9.4c-10.6,0-19.2,8.6-19.2,19.2v5h-5c-3.9,0-7.1,3.2-7.1,7.1
				c0,3.9,3.2,7.1,7.1,7.1h6.5v10h-6.5C12.7,72,5,64.4,5,54.9c0-7.8,5.3-14.4,12.4-16.5c2.1-14.1,14.3-24.9,28.9-24.9
				c9,0,17.6,4.3,23.1,11.4c0.7-0.1,1.3-0.1,2-0.1c13,0,23.6,10.6,23.6,23.6C95,61.5,84.4,72,71.4,72z"/>
		</g>
	</g>
</g>
</svg>
