<?xml version="1.0" encoding="utf-8"?>
<!-- Generator: Adobe Illustrator 24.1.1, SVG Export Plug-In . SVG Version: 6.00 Build 0)  -->
<svg version="1.1" id="Ebene_1" xmlns:serif="http://www.serif.com/"
	 xmlns="http://www.w3.org/2000/svg" xmlns:xlink="http://www.w3.org/1999/xlink" x="0px" y="0px" viewBox="0 0 1706.8 908.4"
	 style="enable-background:new 0 0 1706.8 908.4;" xml:space="preserve">
<style type="text/css">
	.st0{fill:#5755D9;}
	.st1{fill:#EDEEF0;stroke:#EDEEF0;stroke-width:2;stroke-miterlimit:10;}
	.st2{fill:#223666;}
	.st3{fill:#F9AB17;}
	.st4{fill:#FFFFFF;}
	.st5{fill:#F0DE19;}
	.st6{fill:#FFFFFF;stroke:#FFFFFF;stroke-width:2;stroke-miterlimit:10;}
</style>
<rect x="-0.1" y="-0.2" class="st0" width="1707.1" height="908.6"/>
<path class="st1" d="M807.1,591.5l-68.3,300.8h233l-74.3-297.8L807.1,591.5"/>
<path class="st2" d="M970.5,428.8h31c22.3,0,40.6,18.4,40.6,40.6c0,0,0,0.1,0,0.1v97.7c0,0,0,0,0,0.1c0,3.1-2.6,5.7-5.7,5.7
	c-2.4,0-4.6-1.6-5.4-3.9l-15.1-43.5c-5.8-16.6-21.5-27.8-39.1-27.8h-21.2L970.5,428.8 M730,428.8h-31c-22.3,0-40.6,18.4-40.6,40.6
	c0,0,0,0.1,0,0.1v97.7c0,0,0,0,0,0.1c0,3.1,2.6,5.7,5.7,5.7c2.4,0,4.6-1.6,5.4-3.9l15.1-43.5c5.8-16.6,21.5-27.8,39.1-27.8h21.2
	L730,428.8"/>
<path class="st2" d="M851.3,81.2C651.9,219.7,734,508,734,508h234.6c0,0,82.1-288.3-117.3-426.6"/>
<path class="st2" d="M846.8,136.1c-17.4,0-34.7-1.3-51.8-4.1c-126,147.8-61,376-61,376h234.6c0,0,65.4-229.4-62.2-377.2
	c-19.6,3.7-39.6,5.5-59.5,5.4"/>
<path class="st3" d="M847.8,256.6c-37.8,0.2-75.3-5.9-111-18.3c-42.2,131-2.8,269.5-2.8,269.5h234.6c0,0,39.9-140-3.5-271.8
	C927.6,250,887.8,256.9,847.8,256.6"/>
<path class="st2" d="M775,508l9,18.1h135.5l8.1-18.1H775"/>
<rect x="807.1" y="525.9" class="st3" width="90.3" height="13"/>
<path class="st3" d="M924,601.7c-1.4-38.3-33.3-69.1-71.7-69.1s-70.3,30.8-71.7,69.1H924"/>
<path class="st4" d="M922.4,363.5c0,39.6-32.5,72.1-72.1,72.1c-39.6,0-72.1-32.5-72.1-72.1s32.5-72.1,72.1-72.1h0
	C889.9,291.4,922.4,324,922.4,363.5C922.4,363.5,922.4,363.5,922.4,363.5"/>
<path class="st5" d="M850.4,422.9C850.3,422.9,850.3,422.9,850.4,422.9c-32.6,0-59.4-26.8-59.4-59.4s26.8-59.4,59.4-59.4
	c32.6,0,59.4,26.8,59.4,59.4C909.7,396.1,882.9,422.9,850.4,422.9z M850.4,278.4C850.3,278.4,850.3,278.4,850.4,278.4
	c-46.8,0-85.2,38.4-85.2,85.2s38.4,85.2,85.2,85.2c46.7,0,85.2-38.4,85.2-85.2c0,0,0,0,0,0C935.5,316.8,897.1,278.4,850.4,278.4"/>
<path class="st6" d="M705,873.2c0,12.2-2.7,23.8-7.5,34.2h96.5c-6.2-11.5-9.7-24.6-9.7-38.6c0-40.7,29.8-74.4,68.8-80.5
	c-15.9-42.2-56.8-72.5-104.3-72.5c-49.6,0-92,33.1-106.3,78.2C678.3,802.5,705,834.7,705,873.2z"/>
<path class="st1" d="M613.2,907.3h84.3c4.8-10.4,7.5-22,7.5-34.2c0-38.5-26.7-70.7-62.5-79.2c-6.1-1.4-12.4-2.2-18.9-2.2
	c-8.5,0-16.7,1.3-24.4,3.7c15.2,18,24.4,41.3,24.4,66.7C623.5,878.4,619.8,893.7,613.2,907.3z"/>
<path class="st1" d="M865.7,787.3c45,0,81.4,36.5,81.4,81.4c0,14-3.5,27.1-9.7,38.6h94.4c0-0.3-0.1-0.6-0.1-0.9
	c-7-53.7,24.9-103.5,73.8-121.1c-29.5-35.1-73.7-57.4-123.1-57.4c-50.6,0-95.7,23.4-125.1,59.9C860,787.5,862.8,787.3,865.7,787.3z"
	/>
<path class="st1" d="M1031.7,906.5c0,0.3,0.1,0.6,0.1,0.9h145.7c-1-5-1.5-10.2-1.5-15.5c0-34.7,21.7-64.2,52.2-76
	c-24.1-26.6-60.4-41.4-98.7-36.4c-8.4,1.1-16.4,3.1-24.1,5.9C1056.6,803,1024.8,852.8,1031.7,906.5z"/>
<path class="st1" d="M1386.9,907.3h21.8c8.9-19.4,27.2-33.6,49-36.8c-14.1-24.1-40.3-40.3-70.3-40.3c-16.4,0-31.7,4.9-44.5,13.3
	C1366.8,855.7,1383.9,879.4,1386.9,907.3z"/>
<path class="st1" d="M1408.7,907.3h117c-10.2-22.1-32.5-37.5-58.5-37.5c-3.2,0-6.4,0.2-9.5,0.7
	C1435.9,873.8,1417.6,888,1408.7,907.3z"/>
<path class="st6" d="M784.2,868.8c0,14,3.5,27.1,9.7,38.6h143.5c6.2-11.5,9.7-24.6,9.7-38.6c0-45-36.5-81.4-81.4-81.4
	c-2.9,0-5.7,0.1-8.5,0.4c-1.4,0.1-2.8,0.3-4.2,0.5C814.1,794.4,784.2,828.1,784.2,868.8z"/>
<path class="st6" d="M283.4,907.3h36.4c0-0.4,0-0.8,0-1.2c0-13.5,3.3-26.2,9.1-37.4c-0.1,0-0.2,0-0.3,0c-22.3,0-42.6,9-57.3,23.6
	C276,896.7,280.1,901.7,283.4,907.3z"/>
<path class="st6" d="M319.8,907.3H391c5.5-12.7,14.9-23.2,26.7-30.2c-0.7-4.9-1.1-9.9-1.1-15c0-12.1,2.1-23.8,5.9-34.6
	c-6.8-1.8-14-2.8-21.3-2.8c-31.5,0-58.8,17.9-72.3,44c-5.8,11.2-9.1,23.9-9.1,37.4C319.8,906.6,319.8,907,319.8,907.3z"/>
<path class="st1" d="M417.7,877.2c9.5-5.6,20.6-8.8,32.5-8.8c26.5,0,49.3,16,59.2,39h103.8c6.6-13.7,10.4-29,10.4-45.2
	c0-25.4-9.2-48.7-24.4-66.7c-19-22.5-47.3-36.7-79.1-36.7c-45,0-83.3,28.8-97.5,68.9c-3.8,10.8-5.9,22.4-5.9,34.6
	C416.6,867.3,417,872.3,417.7,877.2z"/>
<path class="st6" d="M1339,891.9c0,5.3-0.5,10.5-1.5,15.5h49.4c-3-27.9-20.1-51.6-44.1-63.8c-8.2-4.2-17.3-7-26.8-8.2
	C1330.2,849.9,1339,869.9,1339,891.9z"/>
<path class="st6" d="M1176.1,891.9c0,5.3,0.5,10.5,1.5,15.5h159.9c1-5,1.5-10.2,1.5-15.5c0-22-8.7-41.9-22.9-56.6
	c-14.8-15.3-35.6-24.9-58.6-24.9c-10.3,0-20.2,1.9-29.3,5.4C1197.7,827.6,1176.1,857.2,1176.1,891.9z"/>
<path class="st1" d="M450.2,868.4c-11.8,0-22.9,3.2-32.5,8.8c-11.8,6.9-21.2,17.5-26.7,30.2h118.3
	C499.5,884.4,476.7,868.4,450.2,868.4z"/>
<path class="st1" d="M283.4,907.3c-3.3-5.6-7.4-10.7-12.1-15c-11.5-10.5-26.8-17-43.6-17c-23.8,0-44.5,12.9-55.7,32H283.4z"/>
<g>
	<path class="st4" d="M1150.7,164c0.6-2.2,0.9-4.5,0.8-6.8c-0.7-15.3-13.5-27.5-28.8-27.5s-28.1,12.2-28.8,27.5
		c0.1,2.3,0.4,4.6,1,6.8H1150.7 M1235.2,164c0.6-2.3,0.9-4.6,0.9-7c0-15.8-13-28.8-28.8-28.8h-0.1c-15.8,0-28.8,13-28.8,28.8v0.1
		c0,2.3,0.3,4.6,0.8,6.8h56"/>
	<path class="st4" d="M1196.5,164c4.3-6.4,6.6-13.9,6.6-21.7c0-21.2-17.5-38.7-38.7-38.7s-38.7,17.5-38.7,38.7
		c0,7.7,2.3,15.3,6.6,21.7H1196.5"/>
</g>
<g>
	<path class="st4" d="M437.4,382.5c0.6-2.2,0.9-4.5,0.8-6.8c-0.7-15.3-13.5-27.5-28.8-27.5s-28.1,12.2-28.8,27.5
		c0.1,2.3,0.4,4.6,1,6.8h55.9 M521.9,382.5c0.6-2.3,0.9-4.6,0.9-7c0-15.8-13-28.8-28.8-28.8h-0.1c-15.8,0-28.8,13-28.8,28.8v0.1
		c0,2.3,0.3,4.6,0.8,6.8L521.9,382.5"/>
	<path class="st4" d="M483.3,382.5c4.3-6.4,6.6-13.9,6.6-21.7c0-21.2-17.5-38.7-38.7-38.7s-38.7,17.5-38.7,38.7
		c0,7.7,2.3,15.3,6.6,21.7H483.3"/>
</g>
<g>
	<path class="st4" d="M1316.6,347.4c0.4-1.6,0.6-3.3,0.6-4.9c-0.5-11.1-9.7-19.9-20.8-19.9s-20.3,8.8-20.8,19.9
		c0,1.7,0.3,3.3,0.7,4.9H1316.6 M1377.7,347.4c0.4-1.6,0.6-3.3,0.6-5c0-11.4-9.4-20.8-20.8-20.8h-0.1c-11.4,0-20.8,9.4-20.8,20.8
		v0.1c0,1.7,0.2,3.3,0.6,4.9H1377.7"/>
	<path class="st4" d="M1349.8,347.4c3.1-4.6,4.8-10.1,4.8-15.7c0-15.4-12.6-28-28-28s-28,12.6-28,28c0,5.6,1.7,11,4.8,15.7H1349.8"
		/>
</g>
</svg>
