<svg version="1.1" id="Ebene_1" xmlns="http://www.w3.org/2000/svg" xmlns:xlink="http://www.w3.org/1999/xlink" x="0px" y="0px" viewBox="0 0 983.7 141.7" style="enable-background:new 0 0 983.7 141.7;" xml:space="preserve">
<style type="text/css">
	.st0{fill:#FFFFFF;}
	.st1{fill:#0046F3;}
</style>
<a xlink:href="/portal/fep/de/dt.jsp?setCursor=1_544377">
	<g>
		<rect x="262" class="st0" width="141.7" height="141.7"></rect>
		<path class="st1" d="M383.8,36.5c-0.1-0.2-0.3-0.4-0.5-0.6c-1.1-1.5-2.3-3-3.6-4.5l-1-1.2c-1.3-1.4-2.7-2.7-4.1-4l-0.8-0.7
			c-3.5-3-7.4-5.6-11.5-7.8l-0.5-0.2c-1.8-0.9-3.7-1.8-5.6-2.5c-0.4-0.1-0.8-0.3-1.2-0.4c-1.7-0.6-3.5-1.2-5.2-1.6
			c-0.5-0.1-1-0.3-1.6-0.4c-1.7-0.4-3.5-0.7-5.2-1c-0.5-0.1-1.1-0.2-1.6-0.2c-4.6-0.6-9.2-0.6-13.8,0c-0.5,0.1-1.1,0.2-1.6,0.2
			c-1.8,0.3-3.5,0.6-5.2,1c-0.5,0.1-1,0.3-1.6,0.4c-1.8,0.5-3.5,1-5.2,1.6l-1.2,0.4c-1.9,0.8-3.8,1.6-5.6,2.5l-0.5,0.2
			c-4.1,2.1-8,4.7-11.5,7.8c-0.3,0.2-0.5,0.5-0.8,0.7c-1.4,1.3-2.8,2.6-4.1,4c-0.4,0.4-0.7,0.8-1,1.2c-1.3,1.4-2.5,2.9-3.6,4.5
			c-0.2,0.2-0.4,0.4-0.5,0.6c0,0,0,0.1,0,0.1c-15,21-15,49.1,0,70.1c0,0,0,0.1,0,0.1c0.1,0.2,0.3,0.4,0.5,0.6c1.1,1.6,2.3,3,3.6,4.5
			c0.3,0.4,0.7,0.8,1,1.2c1.3,1.4,2.7,2.7,4.1,4c0.3,0.2,0.5,0.5,0.8,0.7c3.5,3,7.4,5.6,11.5,7.8c0.2,0.1,0.3,0.2,0.5,0.2
			c1.8,0.9,3.7,1.8,5.6,2.5c0.4,0.2,0.8,0.3,1.2,0.4c1.7,0.6,3.4,1.2,5.2,1.6c0.5,0.1,1,0.3,1.6,0.4c1.7,0.4,3.5,0.7,5.2,1
			c0.5,0.1,1.1,0.2,1.6,0.2c4.6,0.6,9.2,0.6,13.8,0c0.5-0.1,1.1-0.2,1.6-0.2c1.8-0.2,3.5-0.6,5.2-1c0.5-0.1,1-0.3,1.6-0.4
			c1.8-0.5,3.5-1,5.2-1.6l1.2-0.4c1.9-0.7,3.8-1.6,5.6-2.5l0.5-0.2c4.1-2.1,8-4.7,11.5-7.8l0.8-0.7c1.4-1.3,2.8-2.6,4.1-4l1-1.2
			c1.3-1.4,2.5-2.9,3.6-4.5c0.1-0.2,0.3-0.4,0.5-0.6c0,0,0-0.1,0-0.1c15-21,15-49.1,0-70.1C383.8,36.6,383.8,36.5,383.8,36.5z
			 M378.8,98.5c-6.6-3.4-13.7-5.8-21.1-7.2c1.3-5,2.1-10.1,2.4-15.3h26C385.5,84,383,91.7,378.8,98.5L378.8,98.5z M373.3,106
			c-1,1.2-2.1,2.3-3.2,3.3c-0.3,0.3-0.6,0.5-0.8,0.8c-1.1,1-2.2,1.9-3.3,2.8c-0.3,0.2-0.6,0.4-0.9,0.7c-1.2,0.9-2.4,1.7-3.6,2.4
			l-0.9,0.5c-1.3,0.8-2.7,1.5-4,2.1c-0.2,0.1-0.5,0.2-0.8,0.4c-1.4,0.7-2.9,1.2-4.4,1.7c-0.2,0.1-0.4,0.2-0.7,0.2
			c-1.5,0.5-3,0.9-4.6,1.3c-0.2,0.1-0.5,0.1-0.7,0.2c-0.6,0.1-1.2,0.2-1.8,0.3c4.8-7.2,8.7-15,11.7-23.2c6.4,1.1,12.6,3.1,18.5,5.9
			C373.6,105.7,373.5,105.9,373.3,106z M322.6,122.3c-1.5-0.4-3.1-0.8-4.6-1.3l-0.7-0.2c-1.5-0.5-3-1.1-4.4-1.7
			c-0.2-0.1-0.5-0.2-0.8-0.4c-1.4-0.7-2.7-1.4-4-2.1l-0.9-0.5c-1.2-0.8-2.5-1.6-3.6-2.4c-0.3-0.2-0.6-0.4-0.9-0.7
			c-1.2-0.9-2.3-1.8-3.3-2.8c-0.3-0.3-0.6-0.5-0.8-0.8c-1.1-1.1-2.2-2.2-3.2-3.3l-0.4-0.4c5.9-2.8,12.1-4.8,18.5-5.9
			c3,8.2,6.9,15.9,11.7,23.2c-0.6-0.1-1.2-0.2-1.8-0.3C323,122.5,322.8,122.4,322.6,122.3L322.6,122.3z M282.5,76h26
			c0.3,5.2,1.1,10.3,2.4,15.3c-7.3,1.4-14.4,3.8-21.1,7.2C285.7,91.7,283.2,84,282.5,76z M289.8,44.8c6.6,3.4,13.8,5.8,21.1,7.2
			c-1.3,5-2.1,10.1-2.4,15.3h-26C283.1,59.3,285.7,51.7,289.8,44.8z M295.3,37.3c1-1.2,2.1-2.3,3.2-3.3l0.8-0.8
			c1.1-1,2.2-1.9,3.3-2.8l0.9-0.7c1.2-0.9,2.4-1.7,3.6-2.5l0.9-0.5c1.3-0.8,2.7-1.5,4-2.1c0.2-0.1,0.5-0.2,0.8-0.4
			c1.4-0.7,2.9-1.2,4.4-1.7c0.2-0.1,0.4-0.2,0.7-0.2c1.5-0.5,3-0.9,4.6-1.3c0.2,0,0.5-0.1,0.7-0.2c0.6-0.1,1.2-0.2,1.8-0.3
			c-4.8,7.2-8.7,15-11.7,23.2c-6.4-1.1-12.6-3.1-18.5-5.9L295.3,37.3z M346.1,21c1.6,0.4,3.1,0.8,4.6,1.3l0.7,0.2
			c1.5,0.5,3,1.1,4.4,1.7l0.8,0.4c1.4,0.7,2.7,1.4,4,2.1l0.9,0.5c1.2,0.8,2.5,1.6,3.6,2.5c0.3,0.2,0.6,0.4,0.9,0.7
			c1.2,0.9,2.3,1.8,3.3,2.8c0.3,0.2,0.6,0.5,0.8,0.8c1.1,1,2.2,2.2,3.2,3.3c0.1,0.2,0.3,0.3,0.4,0.4c-5.9,2.8-12.1,4.8-18.5,6
			c-3-8.2-6.9-15.9-11.7-23.2c0.6,0.1,1.2,0.2,1.8,0.3C345.6,20.9,345.8,21,346.1,21z M334.3,89c-5,0-9.9,0.3-14.8,0.9
			c-1.2-4.5-2-9.2-2.4-13.9h34.4c-0.3,4.7-1.1,9.3-2.4,13.9C344.2,89.3,339.3,89,334.3,89z M346.4,98.3c-3.1,8-7.2,15.6-12.1,22.5
			c-4.9-7-9-14.6-12.1-22.6C330.3,97.5,338.4,97.5,346.4,98.3L346.4,98.3z M317.1,67.3c0.3-4.7,1.1-9.3,2.4-13.9
			c4.9,0.6,9.9,0.9,14.8,0.9c5,0,9.9-0.3,14.8-0.9c1.2,4.5,2,9.2,2.4,13.9H317.1z M334.3,45.6c-4,0-8.1-0.2-12.1-0.6
			c3.1-8,7.1-15.6,12.1-22.5c4.9,7,9,14.6,12.1,22.5C342.4,45.4,338.4,45.6,334.3,45.6L334.3,45.6z M360.2,67.3
			c-0.3-5.2-1.1-10.3-2.4-15.3c7.3-1.4,14.4-3.8,21.1-7.2c4.2,6.8,6.7,14.5,7.3,22.5L360.2,67.3z"></path>
	</g>
</a>
<a xlink:href="/portal/fep/de/dt.jsp">
	<g>
		<rect x="415" class="st0" width="568.7" height="78.3"></rect>
		<path d="M469.5,33.6c0,7.3-2.1,12.9-6.2,16.8c-4.2,3.9-10.2,5.8-18,5.8h-12.6V11.9h13.9c7.2,0,12.9,1.9,16.9,5.7
			S469.5,26.8,469.5,33.6z M459.7,33.9c0-9.5-4.2-14.3-12.6-14.3h-5v28.9h4C455.2,48.5,459.7,43.6,459.7,33.9z"></path>
		<path d="M477.6,13.6c0-3,1.7-4.5,5-4.5s5,1.5,5,4.5c0.1,1.2-0.4,2.5-1.3,3.4c-1.1,0.9-2.4,1.3-3.8,1.2
			C479.2,18.1,477.6,16.6,477.6,13.6z M487.2,56.2H478V22.3h9.2L487.2,56.2z"></path>
		<path d="M526.4,22.3V27l-5.3,1.4c1,1.5,1.5,3.3,1.5,5.1c0.2,3.3-1.2,6.5-3.8,8.5c-2.5,2-6,3-10.6,3h-1.7l-1.4-0.2
			c-0.8,0.5-1.4,1.4-1.4,2.4c0,1.3,1.7,2,5.1,2h5.8c3.7,0,6.6,0.8,8.5,2.4c2,1.6,2.9,3.9,2.9,7c0.1,3.7-1.8,7.3-5,9.2
			c-3.3,2.2-8.1,3.3-14.2,3.3c-4.7,0-8.4-0.8-10.9-2.5c-2.4-1.5-3.8-4.1-3.7-6.9c-0.1-1.9,0.6-3.7,1.9-5.1c1.5-1.5,3.5-2.5,5.6-2.9
			c-1-0.4-1.9-1.1-2.5-2c-0.7-0.8-1.1-1.9-1.1-2.9c0-1.2,0.4-2.3,1.1-3.2c0.9-1,2-1.9,3.2-2.5c-1.8-0.8-3.2-2.1-4.2-3.7
			c-1.1-1.8-1.6-3.9-1.6-6c0-3.7,1.2-6.6,3.6-8.6c2.4-2,5.8-3,10.3-3c1.1,0,2.3,0.1,3.4,0.3c1.3,0.2,2.1,0.3,2.5,0.4L526.4,22.3z
			 M500.2,61c0,1.3,0.7,2.4,1.8,3c1.6,0.8,3.4,1.2,5.1,1.1c2.7,0.1,5.3-0.3,7.8-1.3c1.9-0.9,2.8-2.1,2.8-3.7
			c0.1-1.1-0.6-2.2-1.7-2.6c-1.7-0.6-3.4-0.8-5.2-0.7h-4.8c-1.5-0.1-3,0.4-4.3,1.2C500.9,58.5,500.2,59.7,500.2,61z M503.6,33.4
			c-0.1,1.6,0.4,3.1,1.3,4.4c0.9,1.1,2.4,1.7,3.8,1.6c1.5,0.1,2.9-0.5,3.8-1.6c0.9-1.3,1.3-2.8,1.2-4.4c0-4.1-1.7-6.1-5-6.1
			C505.4,27.3,503.7,29.3,503.6,33.4L503.6,33.4z"></path>
		<path d="M531.6,13.6c0-3,1.7-4.5,5-4.5s5,1.5,5,4.5c0.1,1.2-0.4,2.5-1.2,3.4c-1.1,0.9-2.4,1.3-3.8,1.2
			C533.3,18.1,531.6,16.6,531.6,13.6z M541.3,56.2H532V22.3h9.2L541.3,56.2z"></path>
		<path d="M565.2,49.5c2-0.1,3.9-0.4,5.8-1.1v6.9c-2.7,1.1-5.6,1.6-8.5,1.5c-3.7,0-6.4-0.9-8.1-2.8c-1.7-1.9-2.5-4.7-2.5-8.4V29.3
			h-4.4v-3.9l5.1-3.1l2.7-7.2h5.9v7.2h9.5v7h-9.5v16.3c-0.1,1.1,0.3,2.2,1.1,2.9C563.2,49.2,564.2,49.5,565.2,49.5z"></path>
		<path d="M599.5,56.2l-1.8-4.6h-0.2c-1.3,1.7-2.9,3.1-4.8,4.1c-2,0.8-4.2,1.2-6.4,1.1c-2.8,0.2-5.6-0.9-7.7-2.8
			c-1.9-1.9-2.8-4.5-2.8-8c0-3.6,1.3-6.3,3.8-8c2.5-1.7,6.3-2.7,11.4-2.8l5.9-0.2v-1.4c0-3.4-1.8-5.1-5.3-5.1
			c-3.3,0.2-6.6,1-9.6,2.5l-3.1-6.2c4-2.1,8.5-3.1,13-3.1c4.5,0,8,1,10.5,3c2.4,2,3.6,5,3.6,9v22.6L599.5,56.2z M596.7,40.5
			l-3.6,0.1c-2.1-0.1-4.2,0.4-6,1.5c-1.3,0.9-2.1,2.4-2,4.1c0,2.6,1.5,3.9,4.5,3.9c1.9,0.1,3.7-0.6,5.1-1.8c1.3-1.3,2-3.1,1.9-4.9
			L596.7,40.5z"></path>
		<path d="M624.7,56.2h-9.2V9h9.2V56.2z"></path>
		<path d="M688,33.6c0,7.3-2.1,12.9-6.2,16.8s-10.2,5.8-18,5.8h-12.6V11.9h13.9c7.2,0,12.8,1.9,16.9,5.7S688.1,26.8,688,33.6z
			 M678.3,33.9c0-9.5-4.2-14.3-12.6-14.3h-5v28.9h4C673.8,48.5,678.3,43.6,678.3,33.9z"></path>
		<path d="M718,56.2l-1.8-4.6H716c-1.3,1.7-2.9,3.1-4.8,4.1c-2,0.8-4.2,1.2-6.4,1.1c-2.8,0.2-5.6-0.9-7.7-2.8
			c-1.9-1.9-2.8-4.5-2.8-8c0-3.6,1.3-6.3,3.8-8c2.5-1.7,6.3-2.7,11.4-2.8l5.9-0.2v-1.4c0-3.4-1.8-5.1-5.3-5.1
			c-3.3,0.2-6.6,1-9.5,2.5l-3.1-6.2c4-2.1,8.5-3.1,13-3.1c4.6,0,8,1,10.5,3c2.4,2,3.6,5,3.6,9v22.6L718,56.2z M715.3,40.5l-3.6,0.1
			c-2.1-0.1-4.2,0.4-6,1.5c-1.3,0.9-2.1,2.4-2,4.1c0,2.6,1.5,3.9,4.5,3.9c1.9,0.1,3.7-0.6,5.1-1.8c1.3-1.3,2-3.1,1.9-4.9L715.3,40.5
			z"></path>
		<path d="M748.3,49.5c2-0.1,3.9-0.4,5.8-1.1v6.9c-2.7,1.1-5.6,1.6-8.5,1.5c-3.7,0-6.4-0.9-8.1-2.8c-1.7-1.9-2.5-4.7-2.5-8.4V29.3
			h-4.4v-3.9l5.1-3.1l2.7-7.2h5.9v7.2h9.5v7h-9.5v16.3c-0.1,1.1,0.3,2.2,1.1,2.9C746.2,49.2,747.3,49.5,748.3,49.5z"></path>
		<path d="M782.5,56.2l-1.8-4.6h-0.2c-1.3,1.7-2.9,3.1-4.8,4.1c-2,0.8-4.2,1.2-6.4,1.1c-2.8,0.2-5.6-0.9-7.7-2.8
			c-1.9-1.9-2.8-4.5-2.8-8c0-3.6,1.3-6.3,3.8-8c2.5-1.7,6.3-2.7,11.4-2.8l5.9-0.2v-1.4c0-3.4-1.8-5.1-5.3-5.1
			c-3.3,0.2-6.5,1-9.5,2.4l-3.1-6.2c4-2.1,8.5-3.1,13-3.1c4.6,0,8,1,10.5,3c2.4,2,3.6,5,3.6,9v22.6L782.5,56.2z M779.8,40.5
			l-3.6,0.1c-2.1-0.1-4.2,0.4-6,1.5c-1.3,0.9-2.1,2.4-2,4.1c0,2.6,1.5,3.9,4.5,3.9c1.9,0.1,3.7-0.6,5.1-1.8c1.3-1.3,2-3.1,1.9-4.9
			L779.8,40.5z"></path>
		<path d="M834.2,19.1c-3.2-0.1-6.3,1.4-8.2,4c-1.9,2.7-2.9,6.4-2.9,11.1c0,9.9,3.7,14.8,11.1,14.8c3.9-0.1,7.7-0.9,11.3-2.3v7.9
			c-3.9,1.6-8,2.3-12.2,2.3c-6.5,0-11.4-2-14.8-5.9s-5.1-9.5-5.1-16.8c-0.1-4.2,0.8-8.3,2.5-12.1c1.5-3.3,4.1-6.1,7.2-8
			c3.4-1.9,7.2-2.9,11-2.8c4.5,0,9,1.1,13,3.1l-3,7.6c-1.6-0.8-3.3-1.5-5-2.1C837.6,19.4,835.9,19.1,834.2,19.1z"></path>
		<path d="M885.5,56.2h-9.2V36.4c0-4.9-1.8-7.3-5.5-7.3c-2.6,0-4.5,0.9-5.6,2.6c-1.1,1.8-1.7,4.6-1.7,8.6v16h-9.2V9h9.2v9.6
			c0,0.8-0.1,2.5-0.2,5.3l-0.2,2.7h0.5c2.1-3.3,5.3-5,9.8-5c4,0,7,1.1,9.1,3.2c2,2.1,3.1,5.2,3.1,9.2V56.2z"></path>
		<path d="M916.6,56.2l-1.8-4.6h-0.2c-1.3,1.7-2.9,3.1-4.8,4.1c-2,0.8-4.2,1.2-6.5,1.1c-2.8,0.2-5.6-0.9-7.7-2.8
			c-1.9-1.9-2.8-4.5-2.8-8c0-3.6,1.3-6.3,3.8-8c2.5-1.7,6.3-2.7,11.4-2.8l5.9-0.2v-1.5c0-3.4-1.8-5.1-5.3-5.1
			c-3.3,0.1-6.6,1-9.6,2.4l-3-6.2c4-2.1,8.5-3.1,13-3.1c4.5,0,8,1,10.5,3s3.6,5,3.6,9v22.6L916.6,56.2z M913.9,40.5l-3.6,0.1
			c-2.1-0.1-4.2,0.4-6,1.5c-1.3,0.9-2.1,2.4-2,4.1c0,2.6,1.5,3.9,4.5,3.9c1.9,0.1,3.7-0.6,5.1-1.8c1.3-1.3,2-3.1,1.9-4.9L913.9,40.5
			z"></path>
		<path d="M932.2,13.6c0-3,1.7-4.5,5-4.5s5,1.5,5,4.5c0.1,1.2-0.3,2.4-1.2,3.3c-1.1,0.9-2.4,1.3-3.8,1.2
			C933.8,18.1,932.2,16.6,932.2,13.6z M941.8,56.2h-9.2V22.3h9.2V56.2z"></path>
		<path d="M982.8,56.2h-9.2V36.4c0.1-1.9-0.3-3.8-1.3-5.5c-1-1.3-2.5-2-4.2-1.8c-2.6,0-4.5,0.9-5.6,2.6c-1.2,1.7-1.7,4.6-1.7,8.6v16
			h-9.2V22.3h7.1l1.2,4.3h0.5c1-1.6,2.5-2.9,4.3-3.7c1.9-0.9,4.1-1.3,6.2-1.3c3.9,0,6.9,1.1,9,3.2s3.1,5.2,3.1,9.2L982.8,56.2z"></path>
	</g>
</a>
<a xlink:href="/portal/fep/de/dt.jsp?setCursor=1_544317">
	<g>
		<rect x="0" class="st0" width="131" height="141.7"></rect>
		<path class="st1" d="M112.5,132.7H9.8c-5.2,0-9.5-4.3-9.5-9.5V20.7c0-5.2,4.3-9.5,9.5-9.5h102.8c5.2,0,9.5,4.2,9.5,9.5v102.4
			C122,128.4,117.8,132.7,112.5,132.7z M9.8,18.7c-1.1,0-2.1,0.9-2.1,2.1v102.4c0,1.1,0.9,2.1,2.1,2.1h102.8c1.1,0,2.1-0.9,2.1-2.1
			l0,0V20.7c0-1.1-0.9-2.1-2.1-2.1H9.8z"></path>
		<polyline class="st1" points="115.6,104.5 115.6,125.7 94.4,125.7 		"></polyline>
		<path class="st1" d="M21.9,32v23.1H45V32H21.9z M38.4,48.5h-9.9v-9.9h9.9V48.5z"></path>
		<path class="st1" d="M21.9,88.2v23.2H45V88.2H21.9z M38.4,104.7h-9.9v-9.9h9.9V104.7z"></path>
		<path class="st1" d="M78.1,32v23.1h23.1V32H78.1z M94.6,48.5h-9.9v-9.9h9.9L94.6,48.5z"></path>
		<polygon class="st1" points="94.6,61.7 94.6,81.6 78.1,81.6 78.1,88.2 101.2,88.2 101.2,61.7 		"></polygon>
		<polygon class="st1" points="78.1,94.8 78.1,111.3 84.7,111.3 84.7,101.4 94.6,101.4 94.6,111.3 101.2,111.3 101.2,94.8 		"></polygon>
		<polygon class="st1" points="51.6,32 51.6,38.6 64.9,38.6 64.9,55.1 71.5,55.1 71.5,32 		"></polygon>
		<polygon class="st1" points="64.9,61.7 64.9,74.9 51.6,74.9 51.6,94.8 64.9,94.8 64.9,111.3 71.5,111.3 71.5,88.2 58.2,88.2 
			58.2,81.6 71.5,81.6 71.5,68.3 78.1,68.3 78.1,74.9 84.7,74.9 84.7,61.7 		"></polygon>
		<rect x="51.6" y="101.4" class="st1" width="6.6" height="9.9"></rect>
		<rect x="35.1" y="74.9" class="st1" width="9.9" height="6.6"></rect>
		<polygon class="st1" points="51.6,45.2 51.6,61.7 21.9,61.7 21.9,81.6 28.5,81.6 28.5,68.3 58.2,68.3 58.2,45.2 		"></polygon>
	</g>
</a>
<a xlink:href="/portal/fep/de/dt.jsp?setCursor=1_544347">
	<g>
		<rect x="131" class="st0" width="131" height="141.7"></rect>
		<path class="st0" d="M171.3,31.2h71.8c1.7,0,3.1,1.4,3.1,3.1v91.4c0,1.7-1.4,3.1-3.1,3.1h-71.8c-1.7,0-3.1-1.4-3.1-3.1V34.4
			C168.1,32.6,169.5,31.2,171.3,31.2z"></path>
		<path class="st1" d="M240.4,132.6h-66.5c-5.2,0-9.5-4.3-9.5-9.5V37c0-5.2,4.3-9.5,9.5-9.5h66.5c5.2,0,9.5,4.3,9.5,9.5v86.1
			C249.9,128.3,245.7,132.6,240.4,132.6z M173.9,35c-1.1,0-2,0.9-2.1,2v86.1c0,1.1,0.9,2.1,2.1,2.1l0,0h66.5c1.1,0,2.1-0.9,2.1-2.1
			v0V37c0-1.1-1-2-2.1-2H173.9z"></path>
		<path class="st0" d="M174.2,15h52.4c1.7,0,3.1,1.4,3.1,3.1l0,0v91.4c0,1.7-1.4,3.1-3.1,3.1l0,0h-71.8c-1.7,0-3.1-1.4-3.1-3.1V39
			L174.2,15z"></path>
		<path class="st1" d="M223.9,116.3h-66.5c-5.2,0-9.5-4.3-9.5-9.5V37.6l24.7-26.3h51.3c5.2,0,9.5,4.3,9.5,9.5v86.1
			C233.4,112.1,229.2,116.3,223.9,116.3z M155.4,40.5v66.3c0,1.1,0.9,2.1,2.1,2.1l0,0h66.5c1.1,0,2.1-0.9,2.1-2.1v0V20.7
			c0-1.1-0.9-2.1-2.1-2.1l0,0h-48.1L155.4,40.5z"></path>
		<path class="st1" d="M170.1,44.6h-18.9v-7.4h18.9c1.1,0,2.1-0.9,2.1-2.1c0,0,0,0,0,0V15.1h7.4v19.9
			C179.6,40.3,175.4,44.6,170.1,44.6z"></path>
		<path class="st1" d="M171.7,63.6h13.5c2.2,0,4-1.8,4-4.1c0-2.2-1.8-4-4-4h-13.5c-2.2,0-4,1.8-4,4.1
			C167.7,61.8,169.5,63.6,171.7,63.6z"></path>
		<path class="st1" d="M171.7,79.8h37.8c2.2,0,4-1.8,4-4c0-2.2-1.8-4-4-4h-37.8c-2.2,0-4,1.8-4,4S169.5,79.8,171.7,79.8z"></path>
		<path class="st1" d="M171.7,96h37.8c2.2,0,4-1.8,4-4s-1.8-4-4-4l0,0h-37.8c-2.2,0-4,1.8-4,4S169.5,96,171.7,96z"></path>
		<path class="st1" d="M186.9,31.2l-1.8-5.6h1.4l0.7,2.4c0.2,0.7,0.4,1.3,0.5,2l0,0c0.1-0.7,0.3-1.3,0.5-2l0.7-2.4h1.4l-1.9,5.6
			L186.9,31.2z"></path>
		<path class="st1" d="M190.9,25.6c0.6-0.1,1.1-0.1,1.7-0.1c0.8-0.1,1.6,0.2,2.3,0.6c0.6,0.5,1,1.3,0.9,2.1c0.1,0.9-0.3,1.7-0.9,2.3
			c-0.8,0.5-1.7,0.8-2.6,0.7c-0.5,0-1,0-1.4-0.1L190.9,25.6z M192.2,30.2c0.1,0,0.3,0,0.4,0c1,0.1,1.8-0.6,1.9-1.6
			c0-0.1,0-0.3,0-0.4c0.1-0.9-0.5-1.7-1.4-1.8c-0.1,0-0.2,0-0.4,0c-0.2,0-0.4,0-0.6,0L192.2,30.2z"></path>
		<path class="st1" d="M198,25.5v5.6h-1.3v-5.6H198z"></path>
		<path class="st1" d="M201,28.5v0.9h-2.2v-0.9H201z"></path>
		<path class="st1" d="M201.6,31.2v-0.8l0.7-0.6c1.2-1.1,1.8-1.7,1.8-2.3c0-0.4-0.3-0.8-0.9-0.8c-0.4,0-0.8,0.2-1.2,0.5l-0.4-0.9
			c0.5-0.4,1.1-0.6,1.8-0.6c0.9-0.1,1.8,0.5,1.9,1.5c0,0.1,0,0.2,0,0.3c-0.1,1-0.7,1.8-1.4,2.3l-0.5,0.4l0,0h2.1v1L201.6,31.2z"></path>
		<path class="st1" d="M210.1,25.7v0.8l-2.2,4.6h-1.4l2.2-4.4l0,0h-2.5v-1L210.1,25.7z"></path>
		<path class="st1" d="M214.8,25.7v0.8l-2.2,4.6h-1.4l2.2-4.4l0,0h-2.5v-1L214.8,25.7z"></path>
		<path class="st1" d="M219.5,28.4c0,1.7-0.7,2.8-2.1,2.8s-2-1.3-2-2.8s0.7-2.8,2.1-2.8S219.5,26.9,219.5,28.4z M216.7,28.4
			c0,1.2,0.3,1.8,0.8,1.8s0.8-0.6,0.8-1.9s-0.3-1.8-0.8-1.8S216.7,27.2,216.7,28.4L216.7,28.4z"></path>
	</g>
</a>
<a xlink:href="/portal/fep/de/dt.jsp?setCursor=1_544226&amp;seite=mitgliedsunternehmen">
	<g>
		<rect x="415" y="78.3" class="st0" width="568.7" height="63.4"></rect>
		<path d="M466.9,130h-8.4l-13.9-20.1l-4.3,3.5V130H433V85.7h7.2v21.2c2-2.4,4-4.8,5.9-7l12-14.2h8.2c-7.7,9.1-13.3,15.6-16.6,19.4
			L466.9,130z"></path>
		<path d="M501.7,113.2c0,5.5-1.4,9.7-4.2,12.8c-2.8,3.1-6.7,4.6-11.7,4.6c-2.9,0.1-5.8-0.7-8.3-2.1c-2.4-1.4-4.3-3.6-5.5-6.1
			c-1.3-2.9-2-6-1.9-9.2c0-5.4,1.4-9.7,4.2-12.7s6.7-4.6,11.8-4.6c4.9,0,8.7,1.6,11.5,4.7C500.3,103.7,501.7,107.9,501.7,113.2z
			 M477.3,113.2c0,7.7,2.9,11.6,8.6,11.6c5.7,0,8.5-3.9,8.5-11.6c0-7.7-2.8-11.5-8.5-11.5c-3,0-5.2,1-6.5,3
			C478,106.7,477.3,109.5,477.3,113.2z"></path>
		<path d="M539.4,130h-7.2v-20.6c0-2.6-0.5-4.5-1.6-5.8c-1-1.3-2.7-1.9-5-1.9c-3,0-5.2,0.9-6.6,2.7s-2.1,4.8-2.1,9V130h-7.1V96.5
			h5.6l1,4.4h0.4c1-1.6,2.5-2.9,4.3-3.7c1.9-0.9,4-1.3,6.2-1.3c8,0,12.1,4.1,12.1,12.3L539.4,130z"></path>
		<path d="M571.8,120.5c0.2,3-1.2,5.8-3.6,7.5c-2.4,1.8-5.8,2.6-10.2,2.6c-4.4,0-8-0.7-10.8-2v-6.2c3.4,1.7,7.2,2.6,11,2.7
			c4.4,0,6.6-1.3,6.6-4c0-0.8-0.2-1.5-0.7-2.1c-0.7-0.7-1.5-1.3-2.4-1.8c-1.5-0.8-3.1-1.5-4.6-2.1c-3.9-1.5-6.5-3-7.8-4.5
			c-1.4-1.6-2.1-3.7-2-5.8c-0.1-2.7,1.2-5.2,3.5-6.7c2.3-1.6,5.5-2.4,9.4-2.4c3.9,0,7.7,0.8,11.2,2.4l-2.3,5.4
			c-2.9-1.3-6-2.1-9.1-2.2c-3.8,0-5.6,1.1-5.6,3.2c0,1.1,0.6,2.1,1.5,2.7c2,1.2,4.2,2.2,6.4,3c2.1,0.8,4.1,1.8,6,3
			c1.2,0.8,2.1,1.8,2.8,3.1C571.6,117.6,571.9,119,571.8,120.5z"></path>
		<path d="M609.3,113.2c0,5.5-1.4,9.7-4.2,12.8c-2.8,3.1-6.7,4.6-11.7,4.6c-2.9,0.1-5.8-0.7-8.3-2.1c-2.4-1.4-4.4-3.6-5.5-6.1
			c-1.3-2.9-2-6-1.9-9.2c0-5.4,1.4-9.7,4.2-12.7s6.7-4.6,11.8-4.6c4.9,0,8.7,1.6,11.5,4.7C607.9,103.7,609.3,107.9,609.3,113.2z
			 M584.9,113.2c0,7.7,2.9,11.6,8.6,11.6c5.7,0,8.6-3.9,8.5-11.6c0-7.7-2.9-11.5-8.6-11.5c-3,0-5.2,1-6.5,3
			C585.6,106.7,584.9,109.5,584.9,113.2z"></path>
		<path d="M634.5,95.9c1.2,0,2.4,0.1,3.5,0.3l-0.7,6.6c-1-0.3-2.1-0.4-3.2-0.4c-2.6-0.1-5.1,0.9-6.9,2.8c-1.8,2-2.8,4.6-2.7,7.2V130
			h-7.1V96.5h5.6l0.9,5.9h0.4c1-1.9,2.5-3.6,4.3-4.8C630.4,96.5,632.4,95.9,634.5,95.9z"></path>
		<path d="M656.8,124.9c1.8,0,3.6-0.3,5.2-0.9v5.4c-1,0.4-2,0.7-3,0.9c-1.3,0.2-2.6,0.4-3.9,0.4c-6.7,0-10.1-3.6-10.1-10.7v-18h-4.6
			v-3.2l4.9-2.6l2.3-7.1h4.4v7.5h9.5v5.4h-9.5v18c-0.1,1.4,0.3,2.8,1.3,3.8C654.3,124.5,655.5,124.9,656.8,124.9z"></path>
		<path d="M668.2,87.6c-0.1-1.1,0.3-2.1,1-2.9c0.8-0.7,1.9-1.1,3-1c1.1-0.1,2.1,0.3,2.9,1c0.7,0.8,1.1,1.9,1,2.9
			c0.1,1.1-0.3,2.1-1,2.9c-0.8,0.7-1.9,1.1-2.9,1.1c-1.1,0.1-2.2-0.3-3-1.1C668.5,89.7,668.2,88.6,668.2,87.6z M675.8,130h-7.1V96.5
			h7.1V130z"></path>
		<path d="M709.6,130l-1-4.4h-0.4c-1,1.6-2.5,2.9-4.2,3.7c-2,0.9-4.1,1.4-6.3,1.3c-4.1,0-7.1-1-9.1-3s-3-5.1-3-9.2V96.5h7.2v20.7
			c0,2.6,0.5,4.5,1.6,5.8c1.3,1.4,3.1,2.1,4.9,1.9c3,0,5.2-0.9,6.6-2.7s2.1-4.8,2.1-9V96.5h7.2V130H709.6z"></path>
		<path d="M753.7,130h-7.2v-20.7c0-2.6-0.5-4.5-1.5-5.8c-1.1-1.3-2.8-2-4.5-1.9c-2.7,0-4.7,0.9-6,2.7c-1.3,1.8-1.9,4.8-1.9,8.9V130
			h-7.2V96.5h5.6l1,4.4h0.4c0.9-1.6,2.3-2.9,4-3.7c1.8-0.9,3.8-1.3,5.8-1.3c5.1,0,8.6,1.8,10.2,5.3h0.5c1-1.7,2.5-3,4.2-3.9
			c1.9-1,4-1.4,6.2-1.4c4,0,6.9,1,8.8,3c1.8,2,2.7,5.1,2.7,9.2V130h-7.2v-20.7c0-2.6-0.5-4.5-1.5-5.8c-1.1-1.3-2.8-2-4.6-1.9
			c-2.8,0-4.8,0.9-6.1,2.6s-1.9,4.4-1.9,8L753.7,130z"></path>
	</g>
</a>
</svg>